<?xml version="1.0" encoding="iso-8859-1"?>
<!-- Generator: Adobe Illustrator 18.0.0, SVG Export Plug-In . SVG Version: 6.00 Build 0)  -->
<!DOCTYPE svg PUBLIC "-//W3C//DTD SVG 1.1//EN" "http://www.w3.org/Graphics/SVG/1.1/DTD/svg11.dtd">
<svg xmlns="http://www.w3.org/2000/svg" xmlns:xlink="http://www.w3.org/1999/xlink" version="1.1" id="Capa_1" x="0px" y="0px" viewBox="0 0 422.256 422.256" style="enable-background:new 0 0 422.256 422.256;" xml:space="preserve" width="512px" height="512px">
<g>
	<path d="M422.163,324.509c-0.008-0.043-7.438-32.286-7.438-32.286c-0.072-0.316,0.126,0.288,0,0   c-4.504-13.63-43.815-14.048-48.539-14.048c-4.724,0-44.035,0.419-48.538,14.049c-0.126,0.287,0.072-0.316,0,0   c0,0-7.43,32.242-7.438,32.286c-0.057,0.304-0.093,0.611-0.093,0.92c0,6.283,6.282,11.139,18.673,14.434   c10.053,2.673,23.333,4.146,37.396,4.146s27.344-1.472,37.397-4.146c12.391-3.294,18.673-8.151,18.673-14.434   C422.256,325.12,422.22,324.813,422.163,324.509z M404.152,294.552c-4.154,2.695-17.83,6.378-37.966,6.378   c-20.137,0-33.811-3.683-37.966-6.379c4.155-2.695,17.831-6.377,37.966-6.377C386.322,288.175,399.999,291.857,404.152,294.552z" fill="#eb7310"/>
	<path d="M363.632,218.938c5.012,0,10.099-0.558,15.121-1.656c2.458-0.538,4.578-2.08,5.848-4.252   c1.268-2.172,1.57-4.777,0.832-7.182l-10.968-35.705c7.246-8.915,8.887-21.195,4.381-31.654l15.274-14.758   c2.574-2.486,3.43-6.261,2.181-9.615c-1.249-3.354-4.366-5.648-7.939-5.844l-11.702-0.643l10.657-15.216   c2.238-3.197,2.162-7.472-0.19-10.586c-2.352-3.114-6.441-4.361-10.131-3.08l-136.398,47.291   c-1.269,0.087-148.181,8.173-148.253,8.178c-31.255,1.881-60.829-14.839-75.372-42.585c-2.307-4.402-7.746-6.102-12.149-3.794   c-4.402,2.308-6.101,7.747-3.794,12.149c13.044,24.888,35.966,42.522,62.331,49.297c-3.083,3.855-8.285,11.584-11.454,23.036   c-3.809,13.769-5.205,35.656,8.583,63.393l-22.251,30.224c-1.474,2.002-2.054,4.524-1.603,6.968l9.944,53.922   c0.787,4.269,4.51,7.368,8.851,7.368H65.56c2.669,0,5.2-1.185,6.91-3.234c1.71-2.049,2.422-4.752,1.944-7.378l-6.192-34.017   l66.198-49.695c0.132-0.099-0.126,0.106,0,0c5.472-4.597,9.676-9.585,12.874-14.737c25.125,5.675,56.554,12.43,81.689,16.738   l13.322,84.72c0.688,4.377,4.46,7.602,8.891,7.602h8.334c4.971,0,9-4.029,9-9v-86.238c8.557-6.024,10.874-17.193,12.267-23.774   c0.065-0.308-0.032,0.306,0,0c0.026-0.127-0.021,0.129,0,0l3.713-23.139l20.447-11.874   C314.733,203.774,337.067,218.939,363.632,218.938z" fill="#eb7310"/>
</g>
<g>
</g>
<g>
</g>
<g>
</g>
<g>
</g>
<g>
</g>
<g>
</g>
<g>
</g>
<g>
</g>
<g>
</g>
<g>
</g>
<g>
</g>
<g>
</g>
<g>
</g>
<g>
</g>
<g>
</g>
</svg>
