<?xml version="1.0" encoding="iso-8859-1"?>
<!-- Generator: Adobe Illustrator 18.0.0, SVG Export Plug-In . SVG Version: 6.00 Build 0)  -->
<!DOCTYPE svg PUBLIC "-//W3C//DTD SVG 1.1//EN" "http://www.w3.org/Graphics/SVG/1.1/DTD/svg11.dtd">
<svg xmlns="http://www.w3.org/2000/svg" xmlns:xlink="http://www.w3.org/1999/xlink" version="1.1" id="Capa_1" x="0px" y="0px" viewBox="0 0 445.835 445.835" style="enable-background:new 0 0 445.835 445.835;" xml:space="preserve" width="512px" height="512px">
<g>
	<path d="M189.563,191.731c0.172,0.11,0.35,0.213,0.531,0.305c2.456,1.252,5.203,1.913,7.947,1.913   c5.886,0,11.261-2.897,14.499-7.679l27.045-35.231c0.153-0.2,0.295-0.411,0.423-0.629c4.866-8.341,2.043-19.092-6.297-23.967   c-2.681-1.565-5.732-2.393-8.825-2.393c-6.078,0-11.763,3.188-14.934,8.345l-15.76,20.753l-57.172-36.906   c-0.043-0.027,0.043,0.026,0,0c-3.689-2.628-8.195-4.181-13.061-4.181H78.683c-2.199,0-12.305,0.063-17.741,7.771l-48.444,65.566   c-0.506,0.684-0.841,1.44-1.021,2.22c-0.063,0.208-0.138,0.41-0.178,0.629L0.123,248.539c-0.045,0.241-0.074,0.484-0.09,0.73   c-0.284,4.673,1.27,9.178,4.377,12.683c3.104,3.503,7.387,5.588,12.056,5.87c0.359,0.022,0.718,0.032,1.073,0.032   c0.001,0,0.001,0,0.001,0c9.104,0,16.691-7.02,17.449-16.056l9.37-50.552l11.754-15.906v223.964   c0,10.483,8.53,19.012,19.016,19.012c10.482,0,19.01-8.528,19.01-19.012V282.925l14.365-0.001v126.38   c0,10.483,8.53,19.012,19.016,19.012c10.482,0,19.01-8.528,19.01-19.012V163.946L189.563,191.731z" fill="#eb7310"/>
	<path d="M444.441,371.742l-20.626-24.719c-1.061-1.273-2.603-2.05-4.257-2.147l-21.34-1.243   c-4.156-10.649-9.811-17.755-15.841-22.472c12.899-1.362,25.043-7.427,33.859-17.216c2.218-2.463,2.02-6.256-0.442-8.474   c-2.463-2.218-6.256-2.021-8.474,0.442c-8.767,9.734-21.778,14.705-34.847,13.309l-92.596-12.717l-1.75-5.689l13.72-39.084   c0.815-2.324,0.129-4.91-1.732-6.522c-1.862-1.612-4.522-1.923-6.703-0.785l-8.53,4.449l0.421-5.58   c0.179-2.379-1.068-4.639-3.177-5.754c-2.109-1.118-4.679-0.878-6.545,0.609l-9.378,7.47c-2.79-1.559-5.963-2.407-9.199-2.407   c-3.396,0-6.674,0.903-9.541,2.594l-3.508-1.602l12.828-19.736c1.807-2.778,1.018-6.494-1.761-8.3   c-2.777-1.808-6.494-1.018-8.3,1.761l-13.804,21.237l-5.06-2.31c-2.618-1.192-5.709-0.366-7.377,1.974   c-0.695,0.975-1.062,2.099-1.11,3.229c-2.164,6.795-2.509,13.595-1.277,19.913l-20.877,32.119c-1.807,2.778-1.018,6.494,1.761,8.3   c1.01,0.657,2.143,0.971,3.264,0.971c1.963,0,3.887-0.963,5.036-2.731l16.358-25.167c3.773,5.641,9.153,10.298,15.866,13.372   l12.118,62.351l-15.385,13.771c-0.667,0.598-1.192,1.337-1.537,2.164l-17.191,41.284c-0.771,1.852-0.565,3.967,0.547,5.636   c1.113,1.669,2.986,2.671,4.992,2.671h6.389c2.199,0,4.223-1.203,5.273-3.137l16.233-29.889l8.075-6.295l6.203,29.622   c0.354,1.69,1.42,3.147,2.924,3.996l32.051,18.091c0.927,0.522,1.941,0.774,2.946,0.774c1.742,0,3.455-0.758,4.629-2.179   l3.125-3.783c2.1-2.542,1.755-6.303-0.773-8.42l-26.194-21.95l-3.564-22.026c0.574-0.057,1.16-0.122,1.764-0.201   c16.755-2.196,38.559-6.598,54.459-10.036c1.159,2.921,3.259,5.728,6.199,8.382l35.426,29.629l-5.506,23.374   c-0.397,1.684-0.047,3.459,0.96,4.866c1.007,1.408,2.572,2.313,4.295,2.481l7.802,0.765c0.197,0.02,0.393,0.028,0.589,0.028   c2.661,0,5.039-1.768,5.772-4.375l9.005-32.016c0.478-1.7,0.183-3.523-0.806-4.986l-11.7-17.303l36.272-7.741l15.977,18.489   c1.183,1.368,2.855,2.077,4.543,2.077c1.271,0,2.549-0.401,3.632-1.226l4.422-3.366c1.303-0.992,2.144-2.474,2.327-4.102   C445.98,374.631,445.491,372.999,444.441,371.742z" fill="#eb7310"/>
	<path d="M118.595,104.936c24.788,0,44.954-20.166,44.954-44.954s-20.166-44.954-44.954-44.954S73.64,35.194,73.64,59.982   S93.806,104.936,118.595,104.936z" fill="#eb7310"/>
</g>
<g>
</g>
<g>
</g>
<g>
</g>
<g>
</g>
<g>
</g>
<g>
</g>
<g>
</g>
<g>
</g>
<g>
</g>
<g>
</g>
<g>
</g>
<g>
</g>
<g>
</g>
<g>
</g>
<g>
</g>
</svg>
